HIERARCHY
ROOT Hips
{
	OFFSET 0.00000 0.00000 0.00000
	CHANNELS 6 Xposition Yposition Zposition Zrotation Yrotation Xrotation 
	JOINT LHipJoint
	{
		OFFSET 0 0 0
		CHANNELS 3 Zrotation Yrotation Xrotation
		JOINT LeftHip
		{
			OFFSET 1.75344 -1.53157 0.77399
			CHANNELS 3 Zrotation Yrotation Xrotation
			JOINT LeftKnee
			{
				OFFSET 2.25415 -6.19323 0.00000
				CHANNELS 3 Zrotation Yrotation Xrotation
				JOINT LeftAnkle
				{
					OFFSET 2.30342 -6.32861 0.00000
					CHANNELS 3 Zrotation Yrotation Xrotation
					JOINT LeftToe
					{
						OFFSET 0.10958 -0.30108 1.49206
						CHANNELS 3 Zrotation Yrotation Xrotation
						End Site
						{
							OFFSET 0.00000 -0.00000 0.77783
						}
					}
				}
			}
		}
	}
	JOINT RHipJoint
	{
		OFFSET 0 0 0
		CHANNELS 3 Zrotation Yrotation Xrotation
		JOINT RightHip
		{
			OFFSET -1.81912 -1.53156 0.77399
			CHANNELS 3 Zrotation Yrotation Xrotation
			JOINT RightKnee
			{
				OFFSET -2.22882 -6.12365 0.00000
				CHANNELS 3 Zrotation Yrotation Xrotation
				JOINT RightAnkle
				{
					OFFSET -2.21943 -6.09785 0.00000
					CHANNELS 3 Zrotation Yrotation Xrotation
					JOINT RightToe
					{
						OFFSET -0.18931 -0.52012 1.59379
						CHANNELS 3 Zrotation Yrotation Xrotation
						End Site
						{
							OFFSET -0.00000 -0.00000 0.84686
						}
					}
				}
			}
		}
	}
	JOINT lowerback
	{
		OFFSET 0 0 0
		CHANNELS 3 Zrotation Yrotation Xrotation
		JOINT Chest
		{
			OFFSET -0.00200 1.66634 -0.14248
			CHANNELS 3 Zrotation Yrotation Xrotation
			JOINT Chest2
			{
				OFFSET -0.00875 1.64542 0.09514
				CHANNELS 3 Zrotation Yrotation Xrotation
				JOINT lowerneck
				{
					OFFSET 0 0 0
					CHANNELS 3 Zrotation Yrotation Xrotation
					JOINT Neck
					{
						OFFSET 0.02257 1.59605 0.00839
						CHANNELS 3 Zrotation Yrotation Xrotation
						JOINT Head
						{
							OFFSET -0.10214 1.57530 -0.23335
							CHANNELS 3 Zrotation Yrotation Xrotation
							End Site
							{
								OFFSET -0.03588 1.60717 -0.08062
							}
						}
					}
				}
				JOINT LeftCollar
				{
					OFFSET 0 0 0
					CHANNELS 3 Zrotation Yrotation Xrotation
					JOINT LeftShoulder
					{
						OFFSET 2.54983 1.10186 0.40078
CHANNELS 3 Zrotation Xrotation Yrotation
						JOINT LeftElbow
						{
OFFSET 0 -4.288400 0.000000
CHANNELS 3 Zrotation Xrotation Yrotation
							JOINT LeftWrist
							{
OFFSET 0 -3.065520 -0.000000
CHANNELS 3 Zrotation Xrotation Yrotation
								JOINT lhand
								{
									OFFSET 0 0 0
CHANNELS 3 Zrotation Xrotation Yrotation
									JOINT LFingers
									{
OFFSET 0 -0.753040 0.000000
CHANNELS 3 Zrotation Xrotation Yrotation
										End Site
										{
OFFSET 0 -0.607120 0.000000
										}
									}
								}
								JOINT LThumb
								{
OFFSET 0 0.000000 0.000000
CHANNELS 3 Zrotation Xrotation Yrotation
									End Site
									{
OFFSET 0 -0.616390 0.616390
									}
								}
							}
						}
					}
				}
				JOINT RightCollar
				{
					OFFSET 0 0 0
					CHANNELS 3 Zrotation Yrotation Xrotation
					JOINT RightShoulder
					{
						OFFSET -2.60909 1.35448 0.21802
CHANNELS 3 Zrotation Xrotation Yrotation
						JOINT RightElbow
						{
OFFSET 0 -4.521720 -0.000000
CHANNELS 3 Zrotation Xrotation Yrotation
							JOINT RightWrist
							{
OFFSET 0 -2.891400 0.000000
CHANNELS 3 Zrotation Xrotation Yrotation
								JOINT rhand
								{
									OFFSET 0 0 0
CHANNELS 3 Zrotation Xrotation Yrotation
									JOINT RFingers
									{
OFFSET 0 -0.680540 0.000000
CHANNELS 3 Zrotation Xrotation Yrotation
										End Site
										{
OFFSET 0 -0.548670 0.000000
										}
									}
								}
								JOINT RThumb
								{
OFFSET 0 0.000000 0.000000
CHANNELS 3 Zrotation Xrotation Yrotation
									End Site
									{
OFFSET 0 -0.557050 0.557050
									}
								}
							}
						}
					}
				}
			}
		}
	}
}
MOTION
Frames: 10
Frame Time: 0.008333333333333333
9.198300 15.496400 23.357500 -179.350000 -4.463800 178.772000 0.000000 0.000000 0.000000 -23.490800 -21.933800 2.163600 1.563800 7.891400 22.384600 0.811600 8.618200 -22.238300 4.729900 -13.073000 -39.642200 0.000000 0.000000 0.000000 27.456100 11.855500 7.901300 -0.494300 -4.507600 12.509300 1.406700 -25.401500 -25.908900 -0.013700 -0.755100 2.075300 3.473400 3.376300 8.184000 -0.008000 4.886600 -4.431700 -2.710100 2.131700 -9.010500 9.864300 17.107900 -0.919300 -8.098200 23.016400 3.633400 -2.777200 11.413900 3.269800 -0.000000 0.000000 0.000000 4.890600 11.268300 -43.094500 19.155500 -29.611500 5.107500 2.231700 13.163200 38.072600 0.000000 0.000000 0.000000 -7.125000 0.000000 0.000000 -16.769700 -6.700800 -19.417100 -0.000000 0.000000 0.000000 -4.128200 17.191100 45.607000 -18.883500 -29.273700 -4.973800 -5.301500 19.209400 55.565700 0.000000 0.000000 0.000000 7.125000 0.000000 -0.000000 78.449300 73.815200 -61.494100
9.200928 15.495825 23.360950 -179.471563 -4.601954 178.893563 0.000000 0.000000 0.000000 -23.560370 -22.006409 2.071278 1.550576 7.859449 22.287925 0.815132 8.328585 -22.033040 4.749284 -13.095834 -39.728115 0.000000 0.000000 0.000000 27.320246 11.957596 7.715999 -0.508181 -4.569367 12.684416 1.379595 -25.448318 -26.257160 -0.046144 -1.357738 3.734055 3.314054 3.351741 8.134718 -0.044715 4.828693 -4.486650 -2.650879 2.109359 -9.054525 9.941262 17.016399 -0.416704 -8.413441 22.914632 2.992486 -2.956423 11.377021 3.034642 0.000000 0.000000 0.000000 4.853885 11.297294 -43.146328 19.011103 -29.432442 5.036369 4.102039 12.515140 38.225210 0.000000 0.000000 0.000000 -7.125000 0.000000 0.000000 -15.823319 -7.049635 -18.318519 0.000000 0.000000 0.000000 -4.094606 17.294346 45.848893 -18.822308 -29.197313 -4.943902 -13.666404 25.002105 53.128206 0.000000 0.000000 0.000000 7.125000 0.000000 0.000000 66.355053 76.398323 -53.041639
9.203300 15.496921 23.363757 -179.506356 -4.754056 179.004199 0.000000 0.000000 0.000000 -23.537450 -22.105884 1.963273 1.542044 7.838745 22.225315 0.811465 8.259044 -21.942637 4.806912 -13.162888 -39.981592 0.000000 0.000000 0.000000 27.279002 12.022156 7.563478 -0.515571 -4.602275 12.777583 1.372993 -25.510690 -26.449043 -0.058920 -1.565736 4.306904 3.249127 3.309828 8.086850 -0.043059 4.761660 -4.526623 -2.601428 2.078790 -9.079526 10.007041 16.948552 -0.090090 -8.707280 22.839924 2.574859 -3.098559 11.346954 2.893324 0.000000 0.000000 0.000000 4.792296 11.286053 -43.112865 18.876476 -29.264824 4.970381 5.611931 12.127967 38.459513 0.000000 0.000000 0.000000 -7.125000 0.000000 0.000000 -15.067316 -7.452846 -17.471956 0.000000 0.000000 0.000000 -4.134734 17.306580 46.009480 -18.793317 -29.161032 -4.929751 -17.146370 27.207817 51.935180 0.000000 0.000000 0.000000 7.125000 0.000000 0.000000 60.124568 77.390477 -48.408583
9.205275 15.498899 23.366617 -179.506359 -4.887432 179.120616 0.000000 0.000000 0.000000 -23.478058 -22.204937 1.848822 1.533609 7.818244 22.163308 0.800460 8.312485 -21.885502 4.870990 -13.236895 -40.262146 0.000000 0.000000 0.000000 27.257138 12.046767 7.375791 -0.522734 -4.633567 12.866353 1.365360 -25.531996 -26.561774 -0.063817 -1.630174 4.484623 3.230397 3.271168 8.034873 -0.033755 4.704714 -4.568933 -2.570750 2.050438 -9.101002 10.013276 16.947658 -0.071496 -8.751977 22.841563 2.562866 -3.113109 11.347231 2.893045 0.000000 0.000000 0.000000 4.755074 11.275604 -43.105497 18.912664 -29.309837 4.988107 5.498726 12.122025 38.415174 0.000000 0.000000 0.000000 -7.125000 0.000000 0.000000 -15.122111 -7.396110 -17.526788 0.000000 0.000000 0.000000 -4.182403 17.289669 46.103519 -18.788406 -29.154880 -4.927356 -18.119948 27.705939 51.535280 0.000000 0.000000 0.000000 7.125000 0.000000 0.000000 57.961241 77.637822 -46.719024
9.207913 15.502227 23.370941 -179.516416 -5.052397 179.284073 0.000000 0.000000 0.000000 -23.406152 -22.328547 1.672356 1.525330 7.798147 22.102528 0.790543 8.298495 -21.782955 4.923318 -13.296859 -40.490240 0.000000 0.000000 0.000000 27.205371 12.048200 7.117994 -0.529656 -4.663509 12.951342 1.350777 -25.519532 -26.664818 -0.074364 -1.752576 4.822561 3.203278 3.229503 7.968240 -0.042418 4.640014 -4.639710 -2.553405 2.016729 -9.144448 10.017091 16.972490 -0.167005 -8.648780 22.872318 2.738106 -3.065984 11.360501 2.951685 0.000000 0.000000 0.000000 4.775533 11.292157 -43.154876 19.042425 -29.471349 5.051705 4.562139 12.261895 38.260507 0.000000 0.000000 0.000000 -7.125000 0.000000 0.000000 -15.590257 -7.133718 -18.047701 0.000000 0.000000 0.000000 -4.175883 17.295456 46.011367 -18.794941 -29.163083 -4.930528 -17.174467 27.222035 51.784904 0.000000 0.000000 0.000000 7.125000 0.000000 0.000000 59.461076 77.349706 -47.770205
9.210760 15.506533 23.374439 -179.558526 -5.229561 179.478110 0.000000 0.000000 0.000000 -23.359853 -22.481431 1.458493 1.519622 7.784306 22.060727 0.790485 8.128844 -21.643564 4.941897 -13.317917 -40.570840 0.000000 0.000000 0.000000 27.113116 12.044416 6.854410 -0.533418 -4.679824 12.997507 1.333095 -25.483867 -26.746767 -0.093984 -1.976427 5.440592 3.149960 3.195616 7.866485 -0.081056 4.578225 -4.728563 -2.551856 1.984635 -9.186186 10.115415 16.943821 -0.046892 -8.673941 22.841498 2.692237 -3.099223 11.349999 2.930104 0.000000 0.000000 0.000000 4.859611 11.337822 -43.230571 19.068337 -29.503392 5.064535 4.554363 12.180541 38.415290 0.000000 0.000000 0.000000 -7.125000 0.000000 0.000000 -15.605679 -7.282972 -18.101176 0.000000 0.000000 0.000000 -4.080520 17.339259 45.598121 -18.839106 -29.218040 -4.952150 -13.752385 25.433042 52.800969 0.000000 0.000000 0.000000 7.125000 0.000000 0.000000 65.141767 76.335199 -51.854485
9.203532 15.504479 23.356286 -179.585631 -4.873334 179.371332 0.000000 0.000000 0.000000 -23.537844 -22.445537 1.752872 1.517487 7.778967 22.044793 0.791143 8.362113 -21.840857 4.841936 -13.203500 -40.135268 0.000000 0.000000 0.000000 27.058659 12.011479 7.004392 -0.534321 -4.683848 13.009088 1.316914 -25.278361 -26.464380 -0.080020 -1.823652 5.018491 3.219613 3.329499 7.670343 -0.123767 4.755230 -4.643716 -2.643767 2.074082 -8.957764 10.330778 16.817905 0.443629 -9.064009 22.698498 2.137484 -3.310808 11.292339 2.743324 0.000000 0.000000 0.000000 4.947333 11.354907 -43.251105 18.849524 -29.231190 4.957182 6.377556 11.772649 39.112468 0.000000 0.000000 0.000000 -7.125000 0.000000 0.000000 -14.728375 -8.176047 -17.211552 0.000000 0.000000 0.000000 -3.946144 17.315111 44.950225 -19.137427 -29.588888 -5.098601 -6.758182 20.376531 55.110823 0.000000 0.000000 0.000000 7.125000 0.000000 0.000000 76.350661 74.260339 -60.003122
9.201101 15.504900 23.348853 -179.548272 -4.687636 179.338013 0.000000 0.000000 0.000000 -23.547104 -22.420137 1.848761 1.518050 7.780299 22.048797 0.781755 8.520498 -21.885610 4.832450 -13.192601 -40.093752 0.000000 0.000000 0.000000 27.078786 11.980641 7.046584 -0.533276 -4.679178 12.995783 1.322921 -25.201783 -26.251030 -0.058486 -1.553118 4.272195 3.304781 3.389623 7.613547 -0.123902 4.843110 -4.624457 -2.698499 2.114057 -8.891101 10.406718 16.746858 0.727041 -9.288344 22.615539 1.785419 -3.429144 11.258891 2.620409 0.000000 0.000000 0.000000 4.978087 11.392830 -43.263844 18.715114 -29.063105 4.891731 7.658950 11.477494 39.435529 0.000000 0.000000 0.000000 -7.125000 0.000000 0.000000 -14.105629 -8.658875 -16.539831 0.000000 0.000000 0.000000 -3.897970 17.281742 44.663478 -19.438297 -29.959137 -5.248124 -2.668537 16.735456 56.582718 0.000000 0.000000 0.000000 7.125000 0.000000 0.000000 82.489303 73.009645 -64.558035
9.200557 15.506699 23.345244 -179.507023 -4.615503 179.356835 0.000000 0.000000 0.000000 -23.502921 -22.406534 1.837029 1.520070 7.785353 22.063960 0.790305 8.487295 -21.936594 4.814044 -13.171232 -40.012838 0.000000 0.000000 0.000000 27.106284 11.959595 7.029408 -0.532386 -4.675387 12.985062 1.299250 -25.104665 -26.262623 -0.053184 -1.488382 4.093665 3.350327 3.409854 7.579632 -0.102032 4.874894 -4.637457 -2.703024 2.127027 -8.881666 10.310582 16.763626 0.659581 -9.163943 22.631110 1.853972 -3.375087 11.265558 2.627736 0.000000 0.000000 0.000000 4.969128 11.424298 -43.365475 18.725416 -29.076049 4.896694 7.902710 11.342383 39.274451 0.000000 0.000000 0.000000 -7.125000 0.000000 0.000000 -13.966364 -8.536030 -16.341971 0.000000 0.000000 0.000000 -3.907325 17.276952 44.595393 -19.613630 -30.173915 -5.335822 -1.024845 14.988295 57.344204 0.000000 0.000000 0.000000 7.125000 0.000000 0.000000 85.391644 72.511775 -66.875394
9.200443 15.507743 23.342509 -179.477761 -4.604769 179.366407 0.000000 0.000000 0.000000 -23.468554 -22.403469 1.820996 1.523793 7.794546 22.091654 0.809967 8.415499 -22.056508 4.760697 -13.108871 -39.777729 0.000000 0.000000 0.000000 27.131528 11.937461 7.025050 -0.531765 -4.672780 12.977618 1.266222 -25.011483 -26.366445 -0.060067 -1.579076 4.343843 3.365524 3.409565 7.555469 -0.076770 4.876598 -4.641844 -2.683323 2.127641 -8.873157 10.124508 16.837084 0.296944 -8.794448 22.707422 2.260915 -3.197432 11.295276 2.749606 0.000000 0.000000 0.000000 4.942594 11.424166 -43.534865 18.886309 -29.276731 4.975349 6.953963 11.444450 38.676370 0.000000 0.000000 0.000000 -7.125000 0.000000 0.000000 -14.400732 -7.835143 -16.728169 0.000000 0.000000 0.000000 -3.941704 17.284731 44.632248 -19.687777 -30.264349 -5.373128 -0.191958 14.087239 57.735501 0.000000 0.000000 0.000000 7.125000 0.000000 0.000000 86.806152 72.253683 -68.016762
